<svg width="83" height="14" viewBox="0 0 83 14" fill="none" xmlns="http://www.w3.org/2000/svg">
<path d="M5.16249 1.02167H7.53021L12.246 13.2844H9.81923L8.85946 10.7593H3.85729L2.86035 13.2844H0.433594L5.16249 1.02167ZM6.36056 4.27265L4.7143 8.48339H7.99589L6.36056 4.27265Z" fill="#F7941D"/>
<path d="M22.6809 6.04787L20.7854 7.09072C20.429 6.71905 20.077 6.45889 19.7294 6.3146C19.3818 6.1703 18.973 6.09815 18.5073 6.09815C17.6568 6.09815 16.9682 6.35176 16.4413 6.85897C15.9144 7.36619 15.652 8.01769 15.652 8.81131C15.652 9.60492 15.9056 10.2127 16.4107 10.7002C16.9179 11.1878 17.5825 11.4326 18.4045 11.4326C19.4233 11.4326 20.2169 11.085 20.7832 10.3898L22.5781 11.6185C21.6052 12.8843 20.2323 13.5162 18.4592 13.5162C16.8632 13.5162 15.6149 13.0439 14.7119 12.0995C13.809 11.155 13.3564 10.0487 13.3564 8.7807C13.3564 7.90183 13.5751 7.09291 14.0145 6.35395C14.454 5.61499 15.0661 5.03344 15.8532 4.61149C16.6402 4.18954 17.5191 3.97748 18.492 3.97748C19.3927 3.97748 20.2016 4.15675 20.9187 4.5153C21.6358 4.87385 22.2218 5.38325 22.6787 6.04568L22.6809 6.04787Z" fill="#F7941D"/>
<path d="M24.7231 4.21581H27.0231V8.58397C27.0231 9.43442 27.0821 10.0247 27.198 10.3548C27.316 10.685 27.5041 10.9429 27.762 11.1266C28.02 11.3102 28.3392 11.4021 28.7196 11.4021C29.1 11.4021 29.4192 11.3124 29.6838 11.131C29.9483 10.9495 30.1451 10.685 30.2719 10.3352C30.3659 10.0728 30.414 9.51532 30.414 8.65831V4.21362H32.6899V8.05708C32.6899 9.64213 32.5653 10.7243 32.3138 11.3081C32.0078 12.0186 31.5574 12.5652 30.9627 12.9456C30.3681 13.326 29.6116 13.5162 28.6956 13.5162C27.7008 13.5162 26.8963 13.2932 26.2819 12.8494C25.6676 12.4056 25.2347 11.7847 24.9855 10.991C24.8084 10.4401 24.7188 9.44099 24.7188 7.98931V4.21362L24.7231 4.21581Z" fill="#F7941D"/>
<path d="M37.7442 1.02167H40.0179L42.8601 9.57435L45.7284 1.02167H48.0022L50.0594 13.2844H47.801L46.4871 5.53849L43.881 13.2844H41.8238L39.2418 5.53849L37.895 13.2844H35.6191L37.742 1.02167H37.7442Z" fill="#D3D3D3"/>
<path d="M52.5562 0.479492C52.9563 0.479492 53.2973 0.623781 53.5837 0.912369C53.8701 1.20096 54.0123 1.55076 54.0123 1.96178C54.0123 2.3728 53.8701 2.71386 53.5881 3.00026C53.3061 3.28666 52.9672 3.42876 52.5737 3.42876C52.1802 3.42876 51.8238 3.28228 51.5374 2.99151C51.2532 2.69855 51.1089 2.34438 51.1089 1.92899C51.1089 1.5136 51.251 1.18784 51.533 0.903628C51.8151 0.619414 52.1561 0.479492 52.5562 0.479492ZM51.4193 4.21582H53.6952V13.2866H51.4193V4.21582Z" fill="#D3D3D3"/>
<path d="M55.7634 4.2158H58.0393V5.14497C58.5553 4.7099 59.0231 4.40601 59.4429 4.23767C59.8627 4.06714 60.2912 3.98187 60.7284 3.98187C61.627 3.98187 62.39 4.29669 63.0174 4.92415C63.5443 5.4576 63.8089 6.24685 63.8089 7.29188V13.2866H61.557V9.31418C61.557 8.23198 61.5089 7.51269 61.4105 7.15852C61.3143 6.80216 61.1438 6.53325 60.9033 6.34741C60.6628 6.16158 60.3633 6.06757 60.0091 6.06757C59.5478 6.06757 59.1543 6.22061 58.8242 6.52887C58.4941 6.83713 58.2645 7.26346 58.1377 7.80784C58.0721 8.08987 58.0371 8.70421 58.0371 9.64868V13.2888H55.7612V4.21799L55.7634 4.2158Z" fill="#D3D3D3"/>
<path d="M72.7047 0.71344H74.9806V13.2867H72.7047V12.3269C72.2609 12.7488 71.8149 13.0527 71.3689 13.2407C70.9229 13.4266 70.4375 13.5206 69.915 13.5206C68.7432 13.5206 67.7309 13.0658 66.8761 12.1585C66.0213 11.2491 65.5928 10.1209 65.5928 8.76983C65.5928 7.41872 66.006 6.22064 66.8346 5.32646C67.661 4.43228 68.6667 3.9841 69.8494 3.9841C70.3938 3.9841 70.9032 4.08685 71.382 4.29236C71.8586 4.49787 72.3002 4.80613 72.7069 5.21715V0.715628L72.7047 0.71344ZM70.3107 6.08292C69.6068 6.08292 69.023 6.33214 68.5573 6.82843C68.0917 7.32689 67.8599 7.9631 67.8599 8.74141C67.8599 9.51972 68.096 10.169 68.5705 10.6763C69.0449 11.1813 69.6264 11.4349 70.3195 11.4349C71.0125 11.4349 71.6269 11.1857 72.0969 10.6894C72.567 10.1931 72.8031 9.5394 72.8031 8.73485C72.8031 7.9303 72.567 7.30722 72.0969 6.8175C71.6269 6.32777 71.03 6.08292 70.3107 6.08292Z" fill="#D3D3D3"/>
<path d="M82.8337 5.48165L81.4257 6.8896C80.8529 6.32336 80.3326 6.03915 79.8669 6.03915C79.6111 6.03915 79.4122 6.0938 79.2657 6.20093C79.1214 6.31024 79.0493 6.44361 79.0493 6.60539C79.0493 6.72782 79.0952 6.83932 79.187 6.94208C79.2788 7.04483 79.5062 7.18475 79.8669 7.36403L80.6999 7.7816C81.5788 8.21448 82.18 8.65611 82.5079 9.10648C82.8359 9.55685 82.9998 10.0859 82.9998 10.6915C82.9998 11.4983 82.7047 12.1694 82.1122 12.7094C81.5197 13.2495 80.7261 13.5184 79.7314 13.5184C78.4087 13.5184 77.3527 13.0024 76.5635 11.9683L77.9649 10.4423C78.2316 10.7527 78.5442 11.0042 78.9028 11.1965C79.2613 11.3889 79.5783 11.4851 79.8582 11.4851C80.1577 11.4851 80.4004 11.413 80.584 11.2687C80.7677 11.1244 80.8595 10.9582 80.8595 10.768C80.8595 10.4182 80.5294 10.075 79.8669 9.74268L79.0995 9.36009C77.6326 8.62113 76.898 7.69634 76.898 6.58353C76.898 5.86643 77.1734 5.25428 77.7266 4.74488C78.2797 4.23548 78.9859 3.98187 79.8472 3.98187C80.4354 3.98187 80.9907 4.11086 81.511 4.36884C82.0313 4.62682 82.4708 4.99849 82.8315 5.48165H82.8337Z" fill="#D3D3D3"/>
</svg>
